<?xml version="1.0" standalone="no"?>
<!DOCTYPE svg PUBLIC "-//W3C//DTD SVG 20010904//EN"
 "http://www.w3.org/TR/2001/REC-SVG-20010904/DTD/svg10.dtd">
<svg version="1.0" xmlns="http://www.w3.org/2000/svg"
 width="200.000000pt" height="200.000000pt" viewBox="0 0 200.000000 200.000000"
 preserveAspectRatio="xMidYMid meet">

<g transform="translate(0.000000,200.000000) scale(0.100000,-0.100000)"
fill="#455a64" stroke="none">
<path d="M801 1986 c-12 -14 -5 -26 16 -26 15 0 18 26 4 34 -5 3 -14 0 -20 -8z"/>
<path d="M1194 1969 c-3 -6 -2 -15 4 -21 13 -13 32 -2 32 18 0 16 -26 19 -36
3z"/>
<path d="M1004 1865 c-4 -9 -2 -21 4 -27 16 -16 47 -5 47 17 0 26 -42 34 -51
10z"/>
<path d="M436 1841 c-7 -11 18 -33 27 -24 4 3 7 12 7 20 0 15 -26 18 -34 4z"/>
<path d="M664 1815 c-4 -9 -2 -21 4 -27 16 -16 47 -5 47 17 0 26 -42 34 -51
10z"/>
<path d="M1535 1810 c-8 -14 3 -30 21 -30 8 0 14 9 14 20 0 21 -24 28 -35 10z"/>
<path d="M1333 1793 c-18 -7 -16 -42 2 -49 24 -10 47 14 34 37 -10 19 -15 21
-36 12z"/>
<path d="M835 1704 c-19 -20 -16 -43 8 -58 34 -22 73 27 47 59 -16 19 -35 19
-55 -1z"/>
<path d="M1105 1694 c-19 -20 -16 -43 8 -58 20 -13 50 2 55 26 3 16 -23 48
-38 48 -5 0 -16 -7 -25 -16z"/>
<path d="M384 1646 c-9 -24 4 -48 23 -44 12 2 18 12 18 28 0 29 -32 41 -41 16z"/>
<path d="M576 1607 c-11 -8 -17 -23 -14 -38 2 -19 9 -24 32 -24 40 0 56 27 32
54 -22 25 -26 25 -50 8z"/>
<path d="M1350 1591 c-13 -25 -4 -48 21 -56 38 -12 65 35 37 63 -18 18 -46 14
-58 -7z"/>
<path d="M1594 1595 c-4 -9 -2 -21 4 -27 16 -16 47 -5 47 17 0 26 -42 34 -51
10z"/>
<path d="M170 1565 c-10 -12 -9 -16 5 -21 23 -9 40 10 22 25 -11 9 -17 8 -27
-4z"/>
<path d="M924 1556 c-21 -33 -15 -65 19 -90 26 -19 30 -19 55 -5 63 35 47 119
-23 119 -26 0 -39 -6 -51 -24z"/>
<path d="M1810 1540 c0 -15 5 -20 18 -18 9 2 17 10 17 18 0 8 -8 16 -17 18
-13 2 -18 -3 -18 -18z"/>
<path d="M720 1530 c-11 -11 -20 -31 -20 -45 0 -29 36 -65 65 -65 29 0 65 36
65 65 0 32 -33 65 -65 65 -14 0 -34 -9 -45 -20z"/>
<path d="M1142 1534 c-28 -19 -29 -67 -2 -94 27 -27 56 -25 86 6 58 57 -16
136 -84 88z"/>
<path d="M531 1404 c-27 -34 -26 -50 4 -79 44 -45 105 -21 105 40 0 62 -71 87
-109 39z"/>
<path d="M1321 1404 c-27 -34 -26 -50 4 -79 44 -45 105 -21 105 40 0 62 -71
87 -109 39z"/>
<path d="M371 1406 c-7 -8 -10 -24 -6 -36 8 -25 62 -28 72 -4 14 38 -41 71
-66 40z"/>
<path d="M1550 1391 c-13 -25 -4 -48 21 -56 26 -8 49 11 49 40 0 37 -52 49
-70 16z"/>
<path d="M194 1365 c-8 -19 3 -35 26 -35 19 0 30 17 23 38 -6 17 -42 15 -49
-3z"/>
<path d="M1787 1315 c-20 -19 -12 -45 14 -45 26 0 36 28 17 46 -13 14 -17 14
-31 -1z"/>
<path d="M411 1224 c-27 -34 -26 -50 4 -79 29 -30 58 -32 85 -5 39 39 11 110
-44 110 -15 0 -33 -11 -45 -26z"/>
<path d="M1440 1230 c-42 -42 -13 -110 46 -110 23 0 64 42 64 65 0 7 -9 24
-21 39 -25 31 -61 34 -89 6z"/>
<path d="M5 1221 c-8 -15 3 -31 21 -31 9 0 14 7 12 17 -4 20 -24 28 -33 14z"/>
<path d="M1960 1170 c0 -15 5 -20 18 -18 9 2 17 10 17 18 0 8 -8 16 -17 18
-13 2 -18 -3 -18 -18z"/>
<path d="M269 1146 c-9 -20 -9 -29 1 -41 28 -34 87 5 64 43 -18 28 -52 27 -65
-2z"/>
<path d="M1652 1148 c-25 -25 -6 -68 30 -68 9 0 22 9 28 19 13 25 13 27 -6 45
-19 19 -36 20 -52 4z"/>
<path d="M107 1047 c-8 -21 8 -39 29 -35 27 5 25 42 -2 46 -12 2 -24 -3 -27
-11z"/>
<path d="M380 1020 c-29 -29 -24 -79 11 -99 36 -20 74 -8 89 30 11 27 11 33
-7 57 -26 35 -65 40 -93 12z"/>
<path d="M1492 1024 c-30 -21 -30 -77 0 -98 33 -23 64 -19 87 10 27 34 26 50
-4 79 -28 29 -51 31 -83 9z"/>
<path d="M1824 986 c-9 -24 4 -48 23 -44 12 2 18 12 18 28 0 29 -32 41 -41 16z"/>
<path d="M259 874 c-17 -21 0 -48 33 -52 28 -3 42 18 33 49 -8 23 -48 25 -66
3z"/>
<path d="M1656 864 c-9 -8 -16 -19 -16 -24 0 -13 30 -40 44 -40 33 0 50 62 20
74 -24 9 -31 8 -48 -10z"/>
<path d="M6 821 c-7 -11 18 -33 27 -24 4 3 7 12 7 20 0 15 -26 18 -34 4z"/>
<path d="M433 820 c-43 -18 -55 -68 -23 -100 40 -40 110 -14 110 41 0 30 -9
43 -37 58 -25 13 -21 12 -50 1z"/>
<path d="M1455 818 c-11 -6 -23 -16 -27 -22 -14 -20 -8 -63 10 -79 23 -21 75
-22 92 -1 21 25 16 75 -9 96 -27 21 -38 22 -66 6z"/>
<path d="M1945 801 c-8 -15 3 -31 21 -31 9 0 14 7 12 17 -4 20 -24 28 -33 14z"/>
<path d="M174 716 c-9 -24 4 -48 23 -44 24 4 24 52 0 56 -9 2 -20 -4 -23 -12z"/>
<path d="M1754 655 c-8 -21 2 -45 19 -45 8 0 20 7 27 15 10 12 10 18 0 30 -7
8 -19 15 -27 15 -7 0 -16 -7 -19 -15z"/>
<path d="M546 629 c-48 -38 -23 -109 39 -109 37 0 65 28 65 66 0 23 -42 64
-65 64 -7 0 -24 -9 -39 -21z"/>
<path d="M1326 629 c-50 -40 -24 -109 42 -109 33 0 62 29 62 63 0 21 -43 67
-63 67 -8 0 -26 -9 -41 -21z"/>
<path d="M375 624 c-19 -20 -16 -43 8 -58 34 -22 73 27 47 59 -16 19 -35 19
-55 -1z"/>
<path d="M1542 618 c-25 -25 -6 -68 30 -68 9 0 22 9 28 20 22 40 -26 80 -58
48z"/>
<path d="M710 504 c-18 -21 -17 -72 2 -91 21 -21 64 -20 88 2 24 22 26 68 4
89 -20 20 -78 21 -94 0z"/>
<path d="M1142 508 c-22 -28 -22 -55 -1 -81 39 -51 109 -25 109 39 0 17 -5 35
-12 42 -16 16 -83 15 -96 0z"/>
<path d="M140 460 c0 -15 5 -20 18 -18 9 2 17 10 17 18 0 8 -8 16 -17 18 -13
2 -18 -3 -18 -18z"/>
<path d="M960 472 c-74 -23 -60 -124 17 -124 29 0 63 33 63 61 0 39 -45 74
-80 63z"/>
<path d="M340 435 c-16 -19 -6 -45 19 -45 23 0 35 28 20 46 -15 18 -24 18 -39
-1z"/>
<path d="M1807 444 c-14 -15 -6 -34 14 -34 14 0 19 5 17 17 -3 18 -20 27 -31
17z"/>
<path d="M562 428 c-19 -19 -14 -46 9 -59 18 -9 25 -7 43 10 16 17 18 25 10
39 -14 21 -45 27 -62 10z"/>
<path d="M1339 414 c-17 -21 0 -48 34 -52 21 -3 28 2 33 22 3 14 3 30 -1 35
-10 16 -51 13 -66 -5z"/>
<path d="M1544 385 c-4 -9 -2 -21 4 -27 16 -16 47 -5 47 17 0 26 -42 34 -51
10z"/>
<path d="M1097 323 c-4 -3 -7 -19 -7 -34 0 -32 32 -48 55 -29 20 16 19 56 -1
64 -20 8 -39 8 -47 -1z"/>
<path d="M811 302 c-14 -27 8 -55 40 -50 19 2 24 9 24 33 0 25 -4 31 -27 33
-18 2 -30 -3 -37 -16z"/>
<path d="M604 215 c-4 -9 -2 -21 4 -27 16 -16 47 -5 47 17 0 26 -42 34 -51 10z"/>
<path d="M1270 215 c-25 -30 10 -61 38 -33 17 17 15 26 -7 37 -14 8 -22 7 -31
-4z"/>
<path d="M411 180 c-16 -9 -6 -30 15 -30 15 0 20 25 6 34 -4 2 -14 1 -21 -4z"/>
<path d="M1523 183 c-18 -6 -16 -30 2 -37 9 -3 18 1 22 10 7 18 -7 33 -24 27z"/>
<path d="M944 156 c-9 -24 4 -48 23 -44 12 2 18 12 18 28 0 29 -32 41 -41 16z"/>
<path d="M774 29 c-8 -14 11 -33 25 -25 16 10 13 36 -3 36 -8 0 -18 -5 -22
-11z"/>
<path d="M1152 23 c2 -10 10 -18 18 -18 8 0 16 8 18 18 2 12 -3 17 -18 17 -15
0 -20 -5 -18 -17z"/>
</g>
</svg>
